<?xml version="1.0" encoding="UTF-8"?>
<svg width="187px" height="23px" viewBox="0 0 187 23" version="1.1" xmlns="http://www.w3.org/2000/svg" xmlns:xlink="http://www.w3.org/1999/xlink">
    <!-- Generator: Sketch 48.2 (47327) - http://www.bohemiancoding.com/sketch -->
    <title>negative - beta</title>
    <desc>Created with Sketch.</desc>
    <defs></defs>
    <g id="logo" stroke="none" stroke-width="1" fill="none" fill-rule="evenodd">
        <g id="negative---beta">
            <g id="Group" transform="translate(-3.000000, 1.000000)">
                <g id="Head">
                    <g id="Logo" transform="translate(3.000000, 0.000000)">
                        <g id="Group-7">
                            <path d="M27.972,21.924 L26,21.924 L26,0 L27.972,0 L27.972,21.924 Z M43.11,21.924 C43.0713331,21.5566648 43.0423334,21.1506689 43.023,20.706 C43.0036666,20.2613311 42.994,19.8940014 42.994,19.604 L42.936,19.604 C42.5493314,20.3966706 41.9210044,21.0394975 41.051,21.5325 C40.1809957,22.0255025 39.2626715,22.272 38.296,22.272 C36.5753247,22.272 35.2848376,21.7596718 34.4245,20.735 C33.5641624,19.7103282 33.134,18.3570084 33.134,16.675 L33.134,8.352 L35.106,8.352 L35.106,15.863 C35.106,16.5783369 35.1639994,17.2259971 35.28,17.806 C35.3960006,18.3860029 35.5941653,18.8838313 35.8745,19.2995 C36.1548347,19.7151687 36.531831,20.0389988 37.0055,20.271 C37.479169,20.5030012 38.0736631,20.619 38.789,20.619 C39.3110026,20.619 39.8184975,20.5126677 40.3115,20.3 C40.8045025,20.0873323 41.2443314,19.7635022 41.631,19.3285 C42.0176686,18.8934978 42.3269988,18.3425033 42.559,17.6755 C42.7910012,17.0084967 42.907,16.2206712 42.907,15.312 L42.907,8.352 L44.879,8.352 L44.879,18.937 C44.879,19.3043352 44.8886666,19.7779971 44.908,20.358 C44.9273334,20.9380029 44.9563331,21.4599977 44.995,21.924 L43.11,21.924 Z M52.042,10.672 C52.4286686,9.87932937 53.0231627,9.23650246 53.8255,8.7435 C54.6278373,8.25049753 55.5219951,8.004 56.508,8.004 C56.8753352,8.004 57.2571647,8.04266628 57.6535,8.12 C58.0498353,8.19733372 58.4364981,8.34716555 58.8135,8.5695 C59.1905019,8.79183444 59.5384984,9.08666483 59.8575,9.454 C60.1765016,9.82133517 60.4519988,10.2949971 60.684,10.875 C61.1480023,9.94699536 61.7811627,9.23650246 62.5835,8.7435 C63.3858373,8.25049753 64.3379945,8.004 65.44,8.004 C67.1606753,8.004 68.4511624,8.51632821 69.3115,9.541 C70.1718376,10.5656718 70.602,11.9189916 70.602,13.601 L70.602,21.924 L68.63,21.924 L68.63,14.413 C68.63,12.9823262 68.3641693,11.8320043 67.8325,10.962 C67.3008307,10.0919956 66.3970064,9.657 65.121,9.657 C64.4056631,9.657 63.8015025,9.80199855 63.3085,10.092 C62.8154975,10.3820015 62.4191682,10.763831 62.1195,11.2375 C61.8198318,11.711169 61.602334,12.2476637 61.467,12.847 C61.331666,13.4463363 61.264,14.0649968 61.264,14.703 L61.264,21.924 L59.292,21.924 L59.292,14.007 C59.292,13.3496634 59.2436672,12.750336 59.147,12.209 C59.0503329,11.667664 58.8811679,11.2085019 58.6395,10.8315 C58.3978321,10.4544981 58.0643355,10.164501 57.639,9.9615 C57.2136645,9.75849898 56.6723366,9.657 56.015,9.657 C55.5509977,9.657 55.082169,9.76333227 54.6085,9.976 C54.134831,10.1886677 53.7095019,10.5124978 53.3325,10.9475 C52.9554981,11.3825022 52.6510012,11.9334967 52.419,12.6005 C52.1869988,13.2675033 52.071,14.0553288 52.071,14.964 L52.071,21.924 L50.099,21.924 L50.099,11.339 C50.099,10.9716648 50.0893334,10.4980029 50.07,9.918 C50.0506666,9.3379971 50.0216669,8.81600232 49.983,8.352 L51.868,8.352 C51.9066669,8.71933517 51.9356666,9.12533111 51.955,9.57 C51.9743334,10.0146689 51.984,10.3819985 51.984,10.672 L52.042,10.672 Z M77.707,21.924 L75.735,21.924 L75.735,8.352 L77.707,8.352 L77.707,21.924 Z M78.113,3.132 C78.113,3.53800203 77.9680014,3.87149869 77.678,4.1325 C77.3879985,4.39350131 77.0690017,4.524 76.721,4.524 C76.3729983,4.524 76.0540014,4.39350131 75.764,4.1325 C75.4739985,3.87149869 75.329,3.53800203 75.329,3.132 C75.329,2.72599797 75.4739985,2.3925013 75.764,2.1315 C76.0540014,1.87049869 76.3729983,1.74 76.721,1.74 C77.0690017,1.74 77.3879985,1.87049869 77.678,2.1315 C77.9680014,2.3925013 78.113,2.72599797 78.113,3.132 Z M84.725,8.352 C84.7636669,8.71933517 84.7926666,9.12533111 84.812,9.57 C84.8313334,10.0146689 84.841,10.3819985 84.841,10.672 L84.899,10.672 C85.2856686,9.87932937 85.9139957,9.23650246 86.784,8.7435 C87.6540044,8.25049753 88.5723285,8.004 89.539,8.004 C91.2596753,8.004 92.5501624,8.51632821 93.4105,9.541 C94.2708376,10.5656718 94.701,11.9189916 94.701,13.601 L94.701,21.924 L92.729,21.924 L92.729,14.413 C92.729,13.6976631 92.6710006,13.0500029 92.555,12.47 C92.4389994,11.8899971 92.2408347,11.3921687 91.9605,10.9765 C91.6801653,10.5608313 91.303169,10.2370012 90.8295,10.005 C90.355831,9.77299884 89.7613369,9.657 89.046,9.657 C88.5239974,9.657 88.0165025,9.76333227 87.5235,9.976 C87.0304975,10.1886677 86.5906686,10.5124978 86.204,10.9475 C85.8173314,11.3825022 85.5080012,11.9334967 85.276,12.6005 C85.0439988,13.2675033 84.928,14.0553288 84.928,14.964 L84.928,21.924 L82.956,21.924 L82.956,11.339 C82.956,10.9716648 82.9463334,10.4980029 82.927,9.918 C82.9076666,9.3379971 82.8786669,8.81600232 82.84,8.352 L84.725,8.352 Z M108.36,13.166 C108.36,11.9866608 108.05067,11.1070029 107.432,10.527 C106.81333,9.9469971 105.914339,9.657 104.735,9.657 C103.922996,9.657 103.169003,9.80199855 102.473,10.092 C101.776997,10.3820015 101.187336,10.7686643 100.704,11.252 L99.602,9.947 C100.162669,9.38633053 100.902162,8.92233517 101.8205,8.555 C102.738838,8.18766483 103.777994,8.004 104.938,8.004 C105.67267,8.004 106.358997,8.10549898 106.997,8.3085 C107.635003,8.51150102 108.195664,8.81599797 108.679,9.222 C109.162336,9.62800203 109.539332,10.1403302 109.81,10.759 C110.080668,11.3776698 110.216,12.1026625 110.216,12.934 L110.216,18.879 C110.216,19.4010026 110.235333,19.9423305 110.274,20.503 C110.312667,21.0636695 110.370666,21.5373314 110.448,21.924 L108.679,21.924 C108.621,21.5953317 108.572667,21.2376686 108.534,20.851 C108.495333,20.4643314 108.476,20.0873352 108.476,19.72 L108.418,19.72 C107.79933,20.6286712 107.098504,21.2811647 106.3155,21.6775 C105.532496,22.0738353 104.590006,22.272 103.488,22.272 C102.965997,22.272 102.429503,22.1995007 101.8785,22.0545 C101.327497,21.9094993 100.824836,21.6726683 100.3705,21.344 C99.9161644,21.0153317 99.5391682,20.5900026 99.2395,20.068 C98.9398318,19.5459974 98.79,18.9080038 98.79,18.154 C98.79,17.1099948 99.0558307,16.283503 99.5875,15.6745 C100.119169,15.065497 100.829662,14.6111682 101.719,14.3115 C102.608338,14.0118318 103.628161,13.8185004 104.7785,13.7315 C105.928839,13.6444996 107.12266,13.601 108.36,13.601 L108.36,13.166 Z M107.78,15.138 C106.967996,15.138 106.151171,15.171833 105.3295,15.2395 C104.507829,15.307167 103.763503,15.442499 103.0965,15.6455 C102.429497,15.848501 101.883335,16.1433314 101.458,16.53 C101.032665,16.9166686 100.82,17.4289968 100.82,18.067 C100.82,18.5503358 100.911832,18.9563317 101.0955,19.285 C101.279168,19.6136683 101.525665,19.879499 101.835,20.0825 C102.144335,20.285501 102.487498,20.4304996 102.8645,20.5175 C103.241502,20.6045004 103.623331,20.648 104.01,20.648 C104.706003,20.648 105.324664,20.5271679 105.866,20.2855 C106.407336,20.0438321 106.861665,19.7151687 107.229,19.2995 C107.596335,18.8838313 107.876666,18.405336 108.07,17.864 C108.263334,17.322664 108.36,16.7523363 108.36,16.153 L108.36,15.138 L107.78,15.138 Z M121.41,10.005 L117.582,10.005 L117.582,17.922 C117.582,18.4246692 117.630333,18.8403317 117.727,19.169 C117.823667,19.4976683 117.963832,19.7538324 118.1475,19.9375 C118.331168,20.1211676 118.548665,20.246833 118.8,20.3145 C119.051335,20.382167 119.321999,20.416 119.612,20.416 C119.882668,20.416 120.167832,20.3773337 120.4675,20.3 C120.767168,20.2226663 121.052332,20.116334 121.323,19.981 L121.41,21.692 C121.061998,21.827334 120.699502,21.928833 120.3225,21.9965 C119.945498,22.064167 119.534669,22.098 119.09,22.098 C118.722665,22.098 118.336002,22.0496671 117.93,21.953 C117.523998,21.8563329 117.147002,21.672668 116.799,21.402 C116.450998,21.131332 116.165834,20.7640023 115.9435,20.3 C115.721166,19.8359977 115.61,19.2270038 115.61,18.473 L115.61,10.005 L112.797,10.005 L112.797,8.352 L115.61,8.352 L115.61,4.524 L117.582,4.524 L117.582,8.352 L121.41,8.352 L121.41,10.005 Z M134.837,14.094 C134.779,12.8179936 134.36817,11.7595042 133.6045,10.9185 C132.84083,10.0774958 131.75334,9.657 130.342,9.657 C129.684663,9.657 129.075669,9.77783212 128.515,10.0195 C127.954331,10.2611679 127.461335,10.5898313 127.036,11.0055 C126.610665,11.4211687 126.272335,11.8948307 126.021,12.4265 C125.769665,12.9581693 125.624667,13.5139971 125.586,14.094 L134.837,14.094 Z M136.838,14.732 L136.838,15.167 C136.838,15.3216674 136.828333,15.4859991 136.809,15.66 L125.557,15.66 C125.576333,16.33667 125.711665,16.9746637 125.963,17.574 C126.214335,18.1733363 126.562331,18.6953311 127.007,19.14 C127.451669,19.5846689 127.973664,19.9374987 128.573,20.1985 C129.172336,20.4595013 129.819997,20.59 130.516,20.59 C131.540672,20.59 132.425163,20.353169 133.1695,19.8795 C133.913837,19.405831 134.479331,18.8596698 134.866,18.241 L136.345,19.401 C135.532996,20.4256718 134.638838,21.1603311 133.6625,21.605 C132.686162,22.0496689 131.637339,22.272 130.516,22.272 C129.510662,22.272 128.577838,22.0931685 127.7175,21.7355 C126.857162,21.3778315 126.11767,20.8800032 125.499,20.242 C124.88033,19.6039968 124.392168,18.8500043 124.0345,17.98 C123.676832,17.1099956 123.498,16.1626718 123.498,15.138 C123.498,14.1133282 123.671998,13.1660043 124.02,12.296 C124.368002,11.4259957 124.85133,10.6720032 125.47,10.034 C126.08867,9.39599681 126.813663,8.89816845 127.645,8.5405 C128.476337,8.18283154 129.375328,8.004 130.342,8.004 C131.405339,8.004 132.342996,8.18283154 133.155,8.5405 C133.967004,8.89816845 134.643664,9.38149695 135.185,9.9905 C135.726336,10.599503 136.137165,11.3099959 136.4175,12.122 C136.697835,12.9340041 136.838,13.8039954 136.838,14.732 Z" id="luminate" fill="#FFC80A"></path>
                            <path d="M0,1 L6.119,1 C6.8923372,1 7.67532937,1.08216585 8.468,1.2465 C9.26067063,1.41083416 9.97116352,1.69116469 10.5995,2.0875 C11.2278365,2.48383532 11.7401647,3.02032995 12.1365,3.697 C12.5328353,4.37367005 12.731,5.22432821 12.731,6.249 C12.731,7.33167208 12.4023366,8.27416266 11.745,9.0765 C11.0876634,9.87883735 10.2080055,10.4056654 9.106,10.657 L9.106,10.715 C10.4400067,10.8696674 11.5468289,11.3868289 12.4265,12.2665 C13.3061711,13.1461711 13.746,14.3399925 13.746,15.848 C13.746,16.6986709 13.5671685,17.4768298 13.2095,18.1825 C12.8518315,18.8881702 12.3443366,19.4874975 11.687,19.9805 C11.0296634,20.4735025 10.2273381,20.855332 9.28,21.126 C8.33266193,21.396668 7.26933923,21.532 6.09,21.532 L0,21.532 L0,1 Z M2.088,9.99 L6.293,9.99 C6.79566918,9.99 7.3031641,9.93200058 7.8155,9.816 C8.32783589,9.69999942 8.79666454,9.50183474 9.222,9.2215 C9.64733546,8.94116527 9.99049869,8.56900232 10.2515,8.105 C10.5125013,7.64099768 10.643,7.07067005 10.643,6.394 C10.643,5.73666338 10.5125013,5.18083561 10.2515,4.7265 C9.99049869,4.2721644 9.63766889,3.90000145 9.193,3.61 C8.74833111,3.31999855 8.22633633,3.1121673 7.627,2.9865 C7.02766367,2.86083271 6.38967005,2.798 5.713,2.798 L2.088,2.798 L2.088,9.99 Z M2.088,19.734 L5.974,19.734 C6.72800377,19.734 7.44816324,19.6615007 8.1345,19.5165 C8.82083676,19.3714993 9.42016411,19.1395016 9.9325,18.8205 C10.4448359,18.5014984 10.8556651,18.0858359 11.165,17.5735 C11.4743349,17.0611641 11.629,16.4473369 11.629,15.732 C11.629,14.3786599 11.1698379,13.3685033 10.2515,12.7015 C9.33316208,12.0344967 8.03300841,11.701 6.351,11.701 L2.088,11.701 L2.088,19.734 Z M20.329,21.532 L18.357,21.532 L18.357,7.96 L20.329,7.96 L20.329,21.532 Z M20.735,2.74 C20.735,3.14600203 20.5900014,3.4794987 20.3,3.7405 C20.0099985,4.00150131 19.6910017,4.132 19.343,4.132 C18.9949983,4.132 18.6760015,4.00150131 18.386,3.7405 C18.0959986,3.4794987 17.951,3.14600203 17.951,2.74 C17.951,2.33399797 18.0959986,2.00050131 18.386,1.7395 C18.6760015,1.4784987 18.9949983,1.348 19.343,1.348 C19.6910017,1.348 20.0099985,1.4784987 20.3,1.7395 C20.5900014,2.00050131 20.735,2.33399797 20.735,2.74 Z" id="Bi" fill="#FFFFFF"></path>
                        </g>
                    </g>
                </g>
            </g>
            <g id="pending-copy" transform="translate(142.000000, 9.000000)" fill="#FFC80A">
                <path d="M2,0 L40,0 C41.1045695,-2.02906125e-16 42,0.8954305 42,2 L42,12 C42,13.1045695 41.1045695,14 40,14 L2,14 C0.8954305,14 1.3527075e-16,13.1045695 0,12 L0,2 C-1.3527075e-16,0.8954305 0.8954305,2.02906125e-16 2,0 Z M6,4 L6,10.5333333 L8.49816726,10.5333333 C8.8247267,10.5333333 9.14638293,10.5010361 9.46314559,10.4364407 C9.77990825,10.3718453 10.0607452,10.2657258 10.3056647,10.1180791 C10.5505843,9.97043241 10.7481498,9.77511107 10.8983672,9.53210923 C11.0485845,9.28910739 11.1236921,8.98920455 11.1236921,8.63239171 C11.1236921,8.18945165 10.9832736,7.83572009 10.7024325,7.57118644 C10.4215914,7.30665279 10.0623814,7.14670461 9.62479171,7.0913371 L9.62479171,7.07288136 C9.9840071,6.96829828 10.2746406,6.7960464 10.4967011,6.55612053 C10.7187615,6.31619466 10.82979,6.01167793 10.82979,5.64256121 C10.82979,5.34726783 10.7677447,5.09504185 10.6436521,4.88587571 C10.5195595,4.67670956 10.357915,4.50599564 10.1587137,4.37372881 C9.95951247,4.24146199 9.73255706,4.14610826 9.47784069,4.08766478 C9.22312433,4.0292213 8.96514623,4 8.70389868,4 L6,4 Z M14.2978341,4 L14.2978341,10.5333333 L19.0688437,10.5333333 L19.0688437,9.49981168 L15.5322226,9.49981168 L15.5322226,7.65423729 L18.7161613,7.65423729 L18.7161613,6.67608286 L15.5322226,6.67608286 L15.5322226,5.01506591 L18.8925025,5.01506591 L18.8925025,4 L14.2978341,4 Z M23.634122,5.01506591 L23.634122,10.5333333 L24.8685105,10.5333333 L24.8685105,5.01506591 L26.9944019,5.01506591 L26.9944019,4 L21.5082306,4 L21.5082306,5.01506591 L23.634122,5.01506591 Z M31.344152,4 L28.3267578,10.5333333 L29.7080973,10.5333333 L33.9892703,10.5333333 L35.4,10.5333333 L32.411996,4 L31.344152,4 Z" id="Combined-Shape"></path>
            </g>
        </g>
    </g>
</svg>