<svg xmlns="http://www.w3.org/2000/svg" width="512" height="512" viewBox="0 0 512 512">
    <g fill="none" fill-rule="nonzero">
        <path fill="#FFDC13" d="M443.733 8.533c-14.14 0-25.6 11.46-25.6 25.6v8.533h51.2v-8.533c0-14.139-11.46-25.6-25.6-25.6z"/>
        <path fill="#FFA511" d="M418.133 443.733h51.2l-25.6 51.2z"/>
        <path fill="#FFF" d="M8.533 42.667H384v460.8H8.533z"/>
        <path d="M8.533 443.733v59.733H384V236.373c-81.161 129.093-222.976 207.42-375.467 207.36zM85.333 8.533H307.2v34.133H85.333zM298.667 102.4h-85.333a8.536 8.536 0 0 1-8.533-8.533 8.536 8.536 0 0 0-8.533-8.533 8.536 8.536 0 0 0-8.533 8.533 8.536 8.536 0 0 1-8.533 8.533H93.867a8.536 8.536 0 0 1-8.533-8.533v-51.2H102.4v42.667h69.726c4.702-13.329 19.328-20.326 32.657-15.625a25.598 25.598 0 0 1 15.625 15.625h69.726V42.667H307.2v51.2a8.536 8.536 0 0 1-8.533 8.533z"/>
        <circle cx="85.333" cy="153.6" r="25.6"/>
        <circle cx="85.333" cy="238.933" r="25.6"/>
        <g fill="#6B778A">
            <path d="M332.8 145.067H213.333a8.536 8.536 0 0 1-8.533-8.533 8.536 8.536 0 0 1 8.533-8.533H332.8a8.536 8.536 0 0 1 8.533 8.533 8.536 8.536 0 0 1-8.533 8.533zM179.2 145.067h-34.133a8.536 8.536 0 0 1-8.533-8.533 8.536 8.536 0 0 1 8.533-8.533H179.2a8.536 8.536 0 0 1 8.533 8.533 8.536 8.536 0 0 1-8.533 8.533zM332.8 179.2h-68.267a8.536 8.536 0 0 1-8.533-8.533 8.536 8.536 0 0 1 8.533-8.533H332.8a8.536 8.536 0 0 1 8.533 8.533 8.536 8.536 0 0 1-8.533 8.533zM230.4 179.2h-85.333a8.536 8.536 0 0 1-8.533-8.533 8.536 8.536 0 0 1 8.533-8.533H230.4a8.536 8.536 0 0 1 8.533 8.533 8.536 8.536 0 0 1-8.533 8.533zM332.8 230.4h-34.133a8.536 8.536 0 0 1-8.533-8.533 8.536 8.536 0 0 1 8.533-8.533H332.8a8.536 8.536 0 0 1 8.533 8.533 8.536 8.536 0 0 1-8.533 8.533zM264.533 230.4H145.067a8.536 8.536 0 0 1-8.533-8.533 8.536 8.536 0 0 1 8.533-8.533h119.467a8.536 8.536 0 0 1 8.533 8.533c0 4.71-3.823 8.533-8.534 8.533zM332.8 264.533h-93.867A8.536 8.536 0 0 1 230.4 256a8.536 8.536 0 0 1 8.533-8.533H332.8a8.536 8.536 0 0 1 8.533 8.533 8.536 8.536 0 0 1-8.533 8.533zM204.8 264.533h-59.733a8.536 8.536 0 0 1-8.533-8.533 8.536 8.536 0 0 1 8.533-8.533H204.8a8.536 8.536 0 0 1 8.533 8.533 8.536 8.536 0 0 1-8.533 8.533z"/>
        </g>
        <path fill="#163768" d="M256 452.267h-25.6a8.513 8.513 0 0 1-6.033-2.5l-34.133-34.133 12.066-12.066 31.633 31.633H256v17.066z"/>
        <path fill="#235087" d="M202.3 364.433l-12.066-12.066 34.133-34.133a8.513 8.513 0 0 1 6.033-2.5H256V332.8h-22.067L202.3 364.433z"/>
        <g transform="translate(59 298)">
            <path fill="#FFA511" d="M77.533 86H171.4C171.502 38.768 133.299.394 86.067.291 38.835.188.461 38.392.358 85.624c-.103 47.232 38.101 85.606 85.333 85.709a85.543 85.543 0 0 0 56.243-20.932L77.533 86z"/>
            <circle cx="248.2" cy="26.267" r="25.6"/>
        </g>
        <path fill="#E5AF17" d="M200.934 448.401A85.106 85.106 0 0 0 230.4 384.23a442.123 442.123 0 0 1-63.377 30.251l33.911 33.92z"/>
        <path fill="#F08015" d="M79.078 438.093c29.79 36.412 83.456 41.779 119.868 11.989a61.666 61.666 0 0 0 1.988-1.681l-33.92-33.92a441.063 441.063 0 0 1-87.936 23.612z"/>
        <path fill="#E5AF17" d="M469.333 443.733V409.6a59.42 59.42 0 0 1-10.752 34.133h10.752z"/>
        <path fill="#F08015" d="M429.227 465.963l14.507 28.971 25.6-51.2h-10.752a59.876 59.876 0 0 1-29.355 22.229z"/>
        <path fill="#EF2648" d="M435.2 486.4a8.536 8.536 0 0 0 8.533 8.533 8.536 8.536 0 0 0 8.533-8.533v-8.533H435.2v8.533z"/>
        <path fill="#E5AF17" d="M469.214 42.667h.12l-.001-8.533c.034-14.106-11.375-25.566-25.481-25.6a25.534 25.534 0 0 0-14.899 4.753 85.342 85.342 0 0 1 40.261 29.38z"/>
        <path fill="#000" d="M8.533 512H384a8.536 8.536 0 0 0 8.533-8.533v-460.8A8.536 8.536 0 0 0 384 34.134h-76.8v-25.6a8.536 8.536 0 0 0-8.533-8.533h-204.8a8.536 8.536 0 0 0-8.533 8.533v25.6h-76.8C3.823 34.133 0 37.956 0 42.667v460.8A8.536 8.536 0 0 0 8.533 512zM102.4 51.2h187.733v34.133h-69.726c-4.702-13.329-19.328-20.326-32.657-15.625a25.598 25.598 0 0 0-15.625 15.625H102.4V51.2zm0-34.133h187.733v17.067H102.4V17.067zM17.065 51.2h68.269v42.667a8.536 8.536 0 0 0 8.533 8.533H179.2a8.536 8.536 0 0 0 8.533-8.533 8.536 8.536 0 0 1 8.533-8.533 8.536 8.536 0 0 1 8.533 8.533 8.536 8.536 0 0 0 8.533 8.533h85.333a8.536 8.536 0 0 0 8.533-8.533V51.2h68.267v443.733h-358.4V51.2z"/>
        <path fill="#000" d="M85.333 187.733c18.85 0 34.133-15.283 34.133-34.133s-15.283-34.133-34.133-34.133S51.2 134.75 51.2 153.6s15.283 34.133 34.133 34.133zm0-51.2c9.429 0 17.067 7.637 17.067 17.067 0 9.429-7.637 17.067-17.067 17.067S68.266 163.03 68.266 153.6c.001-9.429 7.638-17.067 17.067-17.067zM85.333 273.067c18.85 0 34.133-15.283 34.133-34.133S104.183 204.8 85.333 204.8 51.2 220.083 51.2 238.933s15.283 34.134 34.133 34.134zm0-51.2c9.429 0 17.067 7.637 17.067 17.067 0 9.429-7.637 17.067-17.067 17.067s-17.067-7.637-17.067-17.067c.001-9.43 7.638-17.067 17.067-17.067zM477.867 34.987v-.853C477.867 15.283 462.583 0 443.733 0S409.6 15.283 409.6 34.133v409.6c0 .111.06.205.06.307.034.896.213 1.783.529 2.628.077.188.119.384.196.563.077.179.06.213.111.316l24.704 49.4v6.519a8.536 8.536 0 0 0 8.533 8.533 8.536 8.536 0 0 0 8.533-8.533v-6.519l24.747-49.4c.051-.102.06-.213.111-.316.051-.103.119-.375.196-.563a8.414 8.414 0 0 0 .529-2.628c0-.111.06-.196.06-.307V52.77c10.172 3.618 16.99 13.235 17.024 24.03v76.8a8.536 8.536 0 0 0 8.533 8.533 8.536 8.536 0 0 0 8.533-8.533V76.8c-.025-20.267-14.284-37.734-34.132-41.813zm-51.2 161.28H460.8V435.2h-34.133V196.267zM460.8 179.2h-34.133v-128H460.8v128zM443.733 17.067c9.429 0 17.067 7.637 17.067 17.067h-34.133c0-9.43 7.637-17.067 17.066-17.067zm0 458.786l-11.793-23.586h23.586l-11.793 23.586zM224.367 318.234l-6.554 6.554c-32.683-40.243-91.802-46.37-132.036-13.687-40.234 32.683-46.37 91.802-13.696 132.036 32.674 40.234 91.802 46.37 132.036 13.687.802-.657 1.596-1.323 2.381-1.997a93.948 93.948 0 0 0 11.162-11.691l6.647 6.647a8.576 8.576 0 0 0 6.093 2.483H256V435.2h-22.067l-6.511-6.511a93.11 93.11 0 0 0 .111-89.489l6.4-6.4H256v-17.067h-25.6a8.51 8.51 0 0 0-6.033 2.501zm-18.714 112.81c-1.451 1.86-2.961 3.678-4.582 5.41l-43.938-43.921h64.256a76.67 76.67 0 0 1-6.579 23.543l-12.51-12.51-12.066 12.066 15.419 15.412zm15.736-55.577h-84.855a8.536 8.536 0 0 0-8.533 8.533c0 2.261.896 4.429 2.5 6.033l57.532 57.54c-35.123 23.782-82.867 14.592-106.658-20.523-23.791-35.115-14.592-82.867 20.523-106.658 33.527-22.707 78.933-15.479 103.748 16.521l-15.454 15.454 12.066 12.066 12.476-12.467a75.57 75.57 0 0 1 6.655 23.501zM307.2 290.133c-18.85 0-34.133 15.283-34.133 34.133S288.35 358.4 307.2 358.4s34.133-15.283 34.133-34.133-15.283-34.134-34.133-34.134zm0 51.2c-9.429 0-17.067-7.637-17.067-17.067 0-9.429 7.637-17.067 17.067-17.067s17.067 7.637 17.067 17.067-7.638 17.067-17.067 17.067zM307.2 409.6c-18.85 0-34.133 15.283-34.133 34.133s15.283 34.133 34.133 34.133 34.133-15.283 34.133-34.133S326.05 409.6 307.2 409.6zm0 51.2c-9.429 0-17.067-7.637-17.067-17.067 0-9.429 7.637-17.067 17.067-17.067s17.067 7.637 17.067 17.067S316.629 460.8 307.2 460.8z"/>
    </g>
</svg>
