<?xml version="1.0" standalone="no"?>
<!DOCTYPE svg PUBLIC "-//W3C//DTD SVG 20010904//EN"
 "http://www.w3.org/TR/2001/REC-SVG-20010904/DTD/svg10.dtd">
<svg version="1.0" xmlns="http://www.w3.org/2000/svg"
 width="1024.000000pt" height="1024.000000pt" viewBox="0 0 1024.000000 1024.000000"
 preserveAspectRatio="xMidYMid meet">
<metadata>
Created by potrace 1.11, written by Peter Selinger 2001-2013
</metadata>
<g transform="translate(0.000000,1024.000000) scale(0.100000,-0.100000)"
fill="#000000" stroke="none">
<path d="M0 5120 l0 -5120 5120 0 5120 0 0 5120 0 5120 -5120 0 -5120 0 0
-5120z m5821 3617 c59 -31 101 -92 106 -154 4 -43 -35 -154 -410 -1168 -228
-616 -411 -1121 -407 -1123 3 -1 425 102 936 229 659 165 947 232 990 233 50
1 67 -4 101 -26 66 -44 96 -91 101 -158 l4 -57 -1287 -2759 c-708 -1518 -1299
-2775 -1314 -2794 -44 -56 -95 -80 -171 -80 -83 1 -143 30 -185 89 -27 38 -30
50 -28 109 2 49 126 573 466 1962 255 1042 460 1896 457 1898 -4 1 -441 -106
-971 -238 -1064 -267 -1026 -260 -1115 -204 -66 41 -87 73 -92 141 -3 50 61
325 472 2013 293 1205 484 1972 498 2000 15 29 40 56 72 78 l48 32 843 0 842
0 44 -23z"/>
</g>
</svg>
