<?xml version="1.0" encoding="UTF-8"?>
<svg width="251px" height="251px" viewBox="0 0 251 251" version="1.1" xmlns="http://www.w3.org/2000/svg" xmlns:xlink="http://www.w3.org/1999/xlink">
    <!-- Generator: Sketch 50.2 (55047) - http://www.bohemiancoding.com/sketch -->
    <title>section</title>
    <desc>Created with Sketch.</desc>
    <defs></defs>
    <g id="wallet---internal-beta" stroke="none" stroke-width="1" fill="none" fill-rule="evenodd">
        <g id="intro-(internal-private-beta-only)" transform="translate(-195.000000, -1058.000000)">
            <g id="Group-3" transform="translate(195.000000, 1058.000000)">
                <g id="section">
                    <g id="fast">
                        <g id="Icon-1" fill="#FBC52B">
                            <ellipse id="Oval" cx="107.52" cy="107.6" rx="107.52" ry="107.6"></ellipse>
                        </g>
                        <g id="Clock-2" transform="translate(75.264000, 75.320000)" fill="#434350">
                            <path d="M88.0413767,174.95935 C39.7990698,174.95935 0.550102326,135.726798 0.550102326,87.5088347 C0.550102326,39.2908711 39.7990698,0.062485482 88.0413767,0.062485482 C136.275349,0.062485482 175.520149,39.2908711 175.520149,87.5088347 C175.520149,135.726798 136.275349,174.95935 88.0413767,174.95935 L88.0413767,174.95935 Z" id="Shape"></path>
                            <path d="M93.1131535,90.0540767 L71.3924465,111.77403 C70.5714605,112.594673 69.4962605,113.002911 68.4210605,113.002911 C67.3458605,113.002911 66.2706605,112.594673 65.4538419,111.77403 C63.8118698,110.132745 63.8118698,107.479195 65.4538419,105.837909 L86.5035907,84.7927991 L86.5035907,38.586868 C86.5035907,36.2707395 88.383107,34.3920093 90.7002047,34.3920093 C93.0214698,34.3920093 94.900986,36.2707395 94.900986,38.586868 L94.900986,85.3551684 C94.900986,86.121657 94.6384372,86.8048316 94.2800372,87.421355 C94.2008558,88.3794657 93.8466233,89.3250794 93.1131535,90.0540767 L93.1131535,90.0540767 Z" id="Path"></path>
                        </g>
                    </g>
                    <g id="flash-circle" transform="translate(163.000000, 163.000000) rotate(10.000000) translate(-163.000000, -163.000000) translate(84.000000, 84.000000)" fill="#FFFFFF" fill-rule="nonzero">
                        <path d="M75.05,142.2 L113.444,65.333 L86.9,65.333 L86.9,15.8 L47.4,92.667 L75.05,92.667 L75.05,142.2 Z M79,0 C100.725,0 119.29,7.9 134.695,23.305 C150.1,38.71 158,57.275 158,79 C158,100.725 150.1,119.29 134.695,134.695 C119.29,150.1 100.725,158 79,158 C57.275,158 38.71,150.1 23.305,134.695 C7.9,119.29 0,100.725 0,79 C0,57.275 7.9,38.71 23.305,23.305 C38.71,7.9 57.275,0 79,0 Z" id="Shape"></path>
                    </g>
                </g>
            </g>
        </g>
    </g>
</svg>