<svg xmlns="http://www.w3.org/2000/svg" width="251" height="251" viewBox="0 0 251 251">
    <g fill="none" fill-rule="evenodd">
        <ellipse cx="107.52" cy="107.6" fill="#FBC52B" rx="107.52" ry="107.6"/>
        <path fill="#434350" d="M163.305 250.28c-48.242 0-87.49-39.233-87.49-87.451 0-48.218 39.248-87.447 87.49-87.447 48.234 0 87.48 39.229 87.48 87.447s-39.246 87.45-87.48 87.45z"/>
        <path fill="#FFF" d="M163.305 83.776c-43.612 0-79.09 35.463-79.09 79.053 0 43.594 35.478 79.052 79.09 79.052 43.604 0 79.082-35.458 79.082-79.052 0-43.59-35.478-79.053-79.082-79.053z"/>
        <path fill="#434350" d="M168.377 165.374l-21.72 21.72a4.188 4.188 0 0 1-2.972 1.229 4.171 4.171 0 0 1-2.967-1.229 4.192 4.192 0 0 1 0-5.936l21.05-21.045v-46.206a4.197 4.197 0 0 1 4.196-4.195c2.321 0 4.201 1.879 4.201 4.195v46.768c0 .767-.263 1.45-.621 2.066-.08.958-.433 1.904-1.167 2.633z"/>
    </g>
</svg>
