<?xml version="1.0" encoding="UTF-8"?>
<svg width="72px" height="71px" viewBox="0 0 72 71" version="1.1" xmlns="http://www.w3.org/2000/svg" xmlns:xlink="http://www.w3.org/1999/xlink">
    <!-- Generator: Sketch 48.2 (47327) - http://www.bohemiancoding.com/sketch -->
    <title>safe</title>
    <desc>Created with Sketch.</desc>
    <defs></defs>
    <g id="landing-v.3" stroke="none" stroke-width="1" fill="none" fill-rule="evenodd" transform="translate(-239.000000, -1735.000000)">
        <g id="Group-3" transform="translate(239.000000, 1533.000000)">
            <g id="section">
                <g id="safe" transform="translate(0.000000, 202.000000)">
                    <circle id="Oval" fill="#FBC52B" cx="30" cy="30" r="30"></circle>
                    <g transform="translate(20.000000, 23.000000)">
                        <path d="M50.6924475,4.90348475 C50.6924475,2.63549831 48.8509831,0.794033898 46.5829966,0.794033898 L4.90348475,0.794033898 C2.63549831,0.794033898 0.794142373,2.63549831 0.794142373,4.90348475 L0.794142373,37.9050305 C0.794142373,40.1730169 2.63549831,42.0143729 4.90348475,42.0143729 L46.5829966,42.0143729 C48.8509831,42.0143729 50.6924475,40.1730169 50.6924475,37.9050305 L50.6924475,4.90348475 Z" id="Stroke-1" stroke="#434350" stroke-width="2" stroke-linecap="round"></path>
                        <path d="M43.0992271,10.4700746 C43.0992271,8.92138305 41.8418983,7.66416271 40.2933153,7.66416271 L11.1931661,7.66416271 C9.64458305,7.66416271 8.38736271,8.92138305 8.38736271,10.4700746 L8.38736271,32.3384407 C8.38736271,33.8871322 9.64458305,35.1443525 11.1931661,35.1443525 L40.2933153,35.1443525 C41.8418983,35.1443525 43.0992271,33.8871322 43.0992271,32.3384407 L43.0992271,10.4700746 Z" id="Stroke-2" stroke="#434350" stroke-width="2" fill="#FFFFFF" stroke-linecap="round"></path>
                        <path d="M25.7988339,14.5703051 C24.9340746,14.1515932 23.9978305,13.9006915 23.0395661,13.8310508 L22.0195797,15.8395661 C20.9650983,15.9285153 19.9575864,16.3152271 19.1143051,16.9547932 L17.0123932,16.1447051 C16.3469017,16.8376407 15.8189559,17.6505492 15.4565424,18.5403661 L17.0515525,20.1311458 C16.8103051,21.1615458 16.8668203,22.2392407 17.2144814,23.2387254 L15.7944407,24.9875525 C16.2478644,25.8346305 16.8578169,26.587878 17.5920814,27.2074847 L19.5979932,26.1821831 C20.503322,26.7299797 21.5457627,27.0093017 22.6038237,26.9874983 L23.8281763,28.8784271 C24.7738576,28.7089898 25.678861,28.3616542 26.4950237,27.8547525 L26.139661,25.6302644 C26.9404203,24.938522 27.5282441,24.0334102 27.8344678,23.0203661 L30.0112271,22.4402441 C30.1422644,21.4884881 30.0916068,20.520461 29.8617492,19.5876881 L27.6362847,19.2381831 C27.2258169,18.2627797 26.5466576,17.4240542 25.6778847,16.8198508 L25.7988339,14.5703051 Z M22.9833763,19.5592678 C24.0017356,19.8320814 24.6069153,20.8803797 24.3339932,21.8986305 C24.0611797,22.9169898 23.0128814,23.5221695 21.9946305,23.2492475 C20.9762712,22.9764339 20.3710915,21.9281356 20.6440136,20.9098847 C20.9168271,19.8915254 21.9651254,19.2863458 22.9833763,19.5592678 L22.9833763,19.5592678 Z" id="Stroke-3" stroke="#434350" stroke-width="2" stroke-linecap="round"></path>
                        <path d="M36.5907525,17.0652203 L36.5907525,24.6584407" id="Stroke-4" stroke="#434350" stroke-width="2" stroke-linecap="round"></path>
                        <path d="M36.5907525,23.5736949 C37.7880949,23.5736949 38.7602441,24.5458441 38.7602441,25.7431864 C38.7602441,26.9406373 37.7880949,27.912678 36.5907525,27.912678 C35.3933017,27.912678 34.421261,26.9406373 34.421261,25.7431864 C34.421261,24.5458441 35.3933017,23.5736949 36.5907525,23.5736949 L36.5907525,23.5736949 Z" id="Fill-5" fill="#434350"></path>
                        <path d="M36.5907525,14.3004203 C37.7880949,14.3004203 38.7602441,15.2725695 38.7602441,16.4699119 C38.7602441,17.6673627 37.7880949,18.6394034 36.5907525,18.6394034 C35.3933017,18.6394034 34.421261,17.6673627 34.421261,16.4699119 C34.421261,15.2725695 35.3933017,14.3004203 36.5907525,14.3004203 L36.5907525,14.3004203 Z" id="Fill-6" fill="#434350"></path>
                        <polygon id="Stroke-7" stroke="#434350" stroke-width="2" stroke-linecap="round" points="8.38736271 46.3533559 14.8958373 46.3533559 14.8958373 42.0143729 8.38736271 42.0143729"></polygon>
                        <polygon id="Stroke-8" stroke="#434350" stroke-width="2" stroke-linecap="round" points="36.5907525 46.3533559 43.0992271 46.3533559 43.0992271 42.0143729 36.5907525 42.0143729"></polygon>
                    </g>
                </g>
            </g>
        </g>
    </g>
</svg>